<svg xmlns="http://www.w3.org/2000/svg" xmlns:xlink="http://www.w3.org/1999/xlink" width="800" zoomAndPan="magnify" viewBox="0 0 600 149.999998" height="200" preserveAspectRatio="xMidYMid meet" version="1.2"><defs/><g id="cc82150ba5"><g style="fill:#385212;fill-opacity:1;"><g transform="translate(0.000005, 114.751967)"><path style="stroke:none" d="M 49.671875 0 L 6.03125 0 L 6.03125 -84.640625 L 46.90625 -84.640625 C 52.925781 -84.640625 57.804688 -83.570312 61.546875 -81.4375 C 65.285156 -79.3125 68.019531 -76.660156 69.75 -73.484375 C 71.476562 -70.304688 72.34375 -67.109375 72.34375 -63.890625 C 72.34375 -57.867188 70.753906 -53.128906 67.578125 -49.671875 C 64.398438 -46.210938 60.601562 -44.242188 56.1875 -43.765625 L 56.1875 -43.28125 C 59.800781 -42.957031 63.253906 -42.050781 66.546875 -40.5625 C 69.847656 -39.082031 72.5625 -37.015625 74.6875 -34.359375 C 76.820312 -31.703125 77.890625 -28.445312 77.890625 -24.59375 C 77.890625 -20.65625 76.882812 -16.796875 74.875 -13.015625 C 72.863281 -9.242188 69.765625 -6.128906 65.578125 -3.671875 C 61.398438 -1.222656 56.097656 0 49.671875 0 Z M 25.3125 -82.578125 L 25.3125 -44.359375 L 40.515625 -44.359375 C 42.765625 -44.359375 44.972656 -45.082031 47.140625 -46.53125 C 49.304688 -47.976562 51.113281 -50.109375 52.5625 -52.921875 C 54.007812 -55.734375 54.734375 -59.234375 54.734375 -63.421875 C 54.734375 -66.304688 54.128906 -69.21875 52.921875 -72.15625 C 51.722656 -75.09375 49.914062 -77.5625 47.5 -79.5625 C 45.09375 -81.570312 42.078125 -82.578125 38.453125 -82.578125 Z M 25.3125 -42.203125 L 25.3125 -2.171875 L 38.703125 -2.171875 C 43.046875 -2.171875 46.703125 -3.253906 49.671875 -5.421875 C 52.640625 -7.597656 54.867188 -10.3125 56.359375 -13.5625 C 57.847656 -16.820312 58.59375 -20.015625 58.59375 -23.140625 C 58.59375 -27.890625 57.628906 -31.648438 55.703125 -34.421875 C 53.773438 -37.191406 51.398438 -39.179688 48.578125 -40.390625 C 45.765625 -41.597656 43.078125 -42.203125 40.515625 -42.203125 Z M 25.3125 -42.203125 "/></g></g><g style="fill:#385212;fill-opacity:1;"><g transform="translate(81.604278, 114.751967)"><path style="stroke:none" d="M 25.078125 0 L 5.78125 0 L 5.78125 -84.640625 L 25.078125 -84.640625 L 25.078125 -44.734375 L 68.359375 -68.96875 L 68.359375 -57.03125 C 65.703125 -57.425781 62.644531 -57.320312 59.1875 -56.71875 C 55.738281 -56.125 52.242188 -55.222656 48.703125 -54.015625 C 45.171875 -52.804688 41.875 -51.5 38.8125 -50.09375 C 35.757812 -48.6875 33.269531 -47.421875 31.34375 -46.296875 L 31.34375 -45.9375 C 34.882812 -47.21875 38.300781 -47.796875 41.59375 -47.671875 C 44.882812 -47.554688 47.796875 -46.773438 50.328125 -45.328125 C 52.859375 -43.878906 54.691406 -41.789062 55.828125 -39.0625 L 72.453125 0 L 53.171875 0 L 36.40625 -38.453125 C 35.363281 -40.867188 33.835938 -42.273438 31.828125 -42.671875 C 29.816406 -43.078125 27.566406 -42.835938 25.078125 -41.953125 Z M 25.078125 0 "/></g></g><g style="fill:#385212;fill-opacity:1;"><g transform="translate(157.565288, 114.751967)"><path style="stroke:none" d="M 18.203125 0 L 6.15625 0 L 6.15625 -69.6875 L 18.203125 -69.6875 L 18.203125 -40.875 L 18.5625 -40.875 C 19.769531 -47.21875 21.597656 -52.703125 24.046875 -57.328125 C 26.503906 -61.953125 29.421875 -65.507812 32.796875 -68 C 36.171875 -70.488281 39.707031 -71.734375 43.40625 -71.734375 C 49.507812 -71.734375 53.882812 -69.378906 56.53125 -64.671875 C 59.1875 -59.972656 60.515625 -53.566406 60.515625 -45.453125 L 60.765625 -45.453125 C 62.609375 -54.296875 65.703125 -60.882812 70.046875 -65.21875 C 74.390625 -69.5625 79.007812 -71.734375 83.90625 -71.734375 C 89.53125 -71.734375 93.910156 -69.785156 97.046875 -65.890625 C 100.179688 -61.992188 101.75 -56.304688 101.75 -48.828125 L 101.75 0 L 89.703125 0 L 89.703125 -50.28125 C 89.703125 -54.457031 89.195312 -57.769531 88.1875 -60.21875 C 87.1875 -62.664062 85.941406 -64.410156 84.453125 -65.453125 C 82.960938 -66.503906 81.414062 -67.03125 79.8125 -67.03125 C 75.394531 -67.03125 71.375 -64.535156 67.75 -59.546875 C 64.132812 -54.566406 61.765625 -46.9375 60.640625 -36.65625 L 60.640625 0 L 48.59375 0 L 48.59375 -50.28125 C 48.59375 -54.613281 48.085938 -58.023438 47.078125 -60.515625 C 46.078125 -63.015625 44.789062 -64.785156 43.21875 -65.828125 C 41.65625 -66.867188 40.066406 -67.390625 38.453125 -67.390625 C 33.628906 -67.390625 29.410156 -64.394531 25.796875 -58.40625 C 22.179688 -52.425781 19.648438 -44.25 18.203125 -33.875 Z M 18.203125 0 "/></g></g><g style="fill:#385212;fill-opacity:1;"><g transform="translate(267.134375, 114.751967)"><path style="stroke:none" d="M 37.859375 2.046875 C 30.785156 2.046875 24.734375 0.519531 19.703125 -2.53125 C 14.679688 -5.582031 10.820312 -9.859375 8.125 -15.359375 C 5.4375 -20.867188 4.09375 -27.28125 4.09375 -34.59375 C 4.09375 -42.070312 5.4375 -48.582031 8.125 -54.125 C 10.820312 -59.675781 14.679688 -64 19.703125 -67.09375 C 24.734375 -70.1875 30.785156 -71.734375 37.859375 -71.734375 C 44.691406 -71.734375 50.617188 -70.1875 55.640625 -67.09375 C 60.660156 -64 64.535156 -59.675781 67.265625 -54.125 C 70.003906 -48.582031 71.375 -42.070312 71.375 -34.59375 C 71.375 -27.28125 70.003906 -20.867188 67.265625 -15.359375 C 64.535156 -9.859375 60.660156 -5.582031 55.640625 -2.53125 C 50.617188 0.519531 44.691406 2.046875 37.859375 2.046875 Z M 37.859375 0.359375 C 42.597656 0.359375 46.59375 -1.285156 49.84375 -4.578125 C 53.101562 -7.878906 55.597656 -12.203125 57.328125 -17.546875 C 59.054688 -22.890625 59.921875 -28.570312 59.921875 -34.59375 C 59.921875 -39.019531 59.4375 -43.34375 58.46875 -47.5625 C 57.507812 -51.78125 56.082031 -55.578125 54.1875 -58.953125 C 52.300781 -62.328125 49.988281 -65.019531 47.25 -67.03125 C 44.519531 -69.039062 41.390625 -70.046875 37.859375 -70.046875 C 34.078125 -70.046875 30.800781 -69.039062 28.03125 -67.03125 C 25.257812 -65.019531 22.945312 -62.328125 21.09375 -58.953125 C 19.25 -55.578125 17.882812 -51.78125 17 -47.5625 C 16.113281 -43.34375 15.671875 -39.019531 15.671875 -34.59375 C 15.671875 -28.570312 16.472656 -22.890625 18.078125 -17.546875 C 19.691406 -12.203125 22.125 -7.878906 25.375 -4.578125 C 28.632812 -1.285156 32.796875 0.359375 37.859375 0.359375 Z M 37.859375 0.359375 "/></g></g><g style="fill:#385212;fill-opacity:1;"><g transform="translate(342.711761, 114.751967)"><path style="stroke:none" d="M 34.71875 0 L 30.375 0 L 3.5 -69.6875 L 15.4375 -69.6875 L 37.984375 -11.9375 L 60.15625 -69.6875 L 65.34375 -69.6875 L 89.578125 -7.46875 L 102.953125 -41.828125 C 104.804688 -46.410156 105.992188 -50.910156 106.515625 -55.328125 C 107.035156 -59.753906 107.132812 -64.539062 106.8125 -69.6875 L 115.25 -69.6875 L 88.25 0 L 80.296875 0 L 57.390625 -58.59375 Z M 34.71875 0 "/></g></g><g style="fill:#385212;fill-opacity:1;"><g transform="translate(462.526585, 114.751967)"><path style="stroke:none" d="M 41.46875 1.6875 C 36.40625 1.6875 31.625 0.804688 27.125 -0.953125 C 22.625 -2.722656 18.644531 -5.296875 15.1875 -8.671875 C 11.726562 -12.054688 9.015625 -16.078125 7.046875 -20.734375 C 5.078125 -25.398438 4.09375 -30.625 4.09375 -36.40625 C 4.09375 -42.28125 5.117188 -47.40625 7.171875 -51.78125 C 9.222656 -56.164062 11.972656 -59.84375 15.421875 -62.8125 C 18.878906 -65.789062 22.71875 -68.019531 26.9375 -69.5 C 31.164062 -70.988281 35.445312 -71.734375 39.78125 -71.734375 C 45.007812 -71.734375 49.929688 -70.664062 54.546875 -68.53125 C 59.171875 -66.40625 62.929688 -63.191406 65.828125 -58.890625 C 68.722656 -54.585938 70.171875 -49.179688 70.171875 -42.671875 C 70.171875 -40.109375 69.804688 -37.296875 69.078125 -34.234375 L 16.15625 -34.234375 C 16.3125 -27.160156 17.472656 -21.050781 19.640625 -15.90625 C 21.816406 -10.769531 24.710938 -6.8125 28.328125 -4.03125 C 31.941406 -1.257812 35.960938 0.125 40.390625 0.125 C 44.566406 0.125 48.960938 -1.300781 53.578125 -4.15625 C 58.203125 -7.007812 62.847656 -11.367188 67.515625 -17.234375 L 70.046875 -8.796875 C 65.460938 -5.179688 60.738281 -2.53125 55.875 -0.84375 C 51.019531 0.84375 46.21875 1.6875 41.46875 1.6875 Z M 16.15625 -35.921875 L 58.59375 -35.921875 C 59.070312 -38.578125 59.3125 -41.109375 59.3125 -43.515625 C 59.3125 -49.460938 58.40625 -54.40625 56.59375 -58.34375 C 54.789062 -62.289062 52.398438 -65.226562 49.421875 -67.15625 C 46.453125 -69.082031 43.28125 -70.046875 39.90625 -70.046875 C 36.125 -70.046875 32.425781 -68.757812 28.8125 -66.1875 C 25.195312 -63.613281 22.203125 -59.816406 19.828125 -54.796875 C 17.460938 -49.773438 16.238281 -43.484375 16.15625 -35.921875 Z M 16.15625 -35.921875 "/></g></g><g style="fill:#385212;fill-opacity:1;"><g transform="translate(537.862869, 114.751967)"><path style="stroke:none" d="M 18.203125 0 L 6.15625 0 L 6.15625 -69.6875 L 18.203125 -69.6875 L 18.203125 -34.84375 L 18.328125 -34.84375 C 20.492188 -43.445312 23.382812 -50.679688 27 -56.546875 C 30.625 -62.410156 34.804688 -66.523438 39.546875 -68.890625 C 44.285156 -71.265625 49.425781 -71.53125 54.96875 -69.6875 L 53.28125 -61.25 C 47.820312 -63.894531 42.820312 -64.289062 38.28125 -62.4375 C 33.738281 -60.59375 29.78125 -56.878906 26.40625 -51.296875 C 23.03125 -45.710938 20.296875 -38.617188 18.203125 -30.015625 Z M 18.203125 0 "/></g></g></g></svg>