<svg version="1.2" xmlns="http://www.w3.org/2000/svg" viewBox="0 0 1500 363" width="1500" height="363">
	<title>New Project</title>
	<style>
		tspan { white-space:pre } 
		.t0 { font-size: 24px;fill: #000000;font-weight: 400;font-family: "Righteous-Regular", "Righteous" } 
		.s1 { fill: #000000 } 
	</style>
	<text id="pediamower" style="transform: matrix(10.887,0,0,10.887,10.74,255.458)" >
		<tspan x="0" y="0" class="t0">p</tspan><tspan  y="0" class="t0">e</tspan><tspan  y="0" class="t0">d</tspan><tspan  y="0" class="t0">i</tspan><tspan  y="0" class="t0">a</tspan><tspan  y="0" class="t0">m</tspan><tspan  y="0" class="t0">o</tspan><tspan  y="0" class="t0">w</tspan><tspan  y="0" class="t0">e</tspan><tspan  y="0" class="t0">r
</tspan>
	</text>
	<g id="Folder 1">
		<path class="s1" d="m924 246.8c-10.9-6.1-19.4-14.5-25.5-25.2q-9.1-16.2-9.1-36.5 0-20.4 9.1-36.4 9.2-16 25.4-25 16.1-8.9 36.6-8.9 20.5 0 36.6 8.9 16.2 9 25.3 25 9.2 16 9.2 36.4 0 20.3-9.2 36.5c-6.1 10.7-14.6 19.2-25.4 25.2q-16.2 9.1-36.5 9.1-20.3 0-36.5-9.1zm57.5-22.1q9.3-5.7 14.5-16 5.2-10.4 5.2-23.4c0-8.7-1.7-16.7-5.2-23.5q-5.2-10.2-14.5-15.9-9.3-5.7-21-5.6-11.8 0-21.1 5.6-9.3 5.7-14.5 15.9-5.2 10.2-5.2 23.5c0 8.9 1.7 16.5 5.2 23.4q5.2 10.3 14.5 16 9.3 5.7 21.1 5.7 11.7 0 21-5.7z"/>
		<filter id="f0">
			<feFlood flood-color="#00bba7" flood-opacity="1" />
			<feBlend mode="normal" in2="SourceGraphic"/>
			<feComposite in2="SourceAlpha" operator="in" />
		</filter>
		<g id="Folder 2" filter="url(#f0)">
			<path class="s1" d="m1008.8 104.3c4.4 0 6.5-5.1 3.2-7.9-12.4-10.5-29.2-16.6-48.5-16.6-19.2 0-36 6.1-48.4 16.6-3.3 2.8-1.2 7.9 3.2 7.9z"/>
			<path class="s1" d="m1000.4 71.7c3.5 0 5.3-2.3 2.6-3.5-10.1-4.6-23.7-7.2-39.4-7.2-15.7 0-29.4 2.6-39.5 7.2-2.6 1.2-0.9 3.5 2.6 3.5z"/>
			<path class="s1" d="m918.3 265.6c-4.4 0-6.5 5.2-3.2 7.9 12.4 10.6 29.2 16.7 48.5 16.7 19.3 0 36-6.1 48.5-16.7 3.2-2.7 1.1-7.9-3.2-7.9z"/>
			<path class="s1" d="m926.7 298.3c-3.5 0-5.2 2.3-2.6 3.5 10.1 4.6 23.8 7.2 39.5 7.2 15.7 0 29.3-2.6 39.4-7.2 2.7-1.2 1-3.5-2.6-3.5z"/>
		</g>
	</g>
</svg>